# xmcd
#
# Track frame offsets:
# 150
# 19297
# 44072
# 62092
# 85455
# 108532
# 127915
# 146942
# 163457
# 184607
#
# Disc length: 2965 seconds
#
#
# Revision: 2
# Processed by: cddbd v1.5.2PL0 Copyright (c) Steve Scherf et al.
# Submitted via: FreeRIP 2.96 
#
DISCID=980b930a
DTITLE=林志炫 - 熟情歌
DYEAR=2005
DGENRE=Pop
TTITLE0=消失的年代
TTITLE1=說不出的告別
TTITLE2=幸福公路
TTITLE3=熟男情歌
TTITLE4=我們還是朋友嗎
TTITLE5=一念之間
TTITLE6=鱷魚的眼淚\\
TTITLE7=眼睛不聽話
TTITLE8=時光倒流
TTITLE9=鳳凰花開的路口
EXTD=
EXTT0=
EXTT1=
EXTT2=
EXTT3=
EXTT4=
EXTT5=
EXTT6=
EXTT7=
EXTT8=
EXTT9=
PLAYORDER=
